<?xml version="1.0" encoding="UTF-8" standalone="no"?>
<svg
   xmlns="http://www.w3.org/2000/svg"
   version="1.1"
   width="29.781309"
   height="34.002201">
  <defs
     id="defs4660">
    <filter
       id="filter6725"
       style="color-interpolation-filters:sRGB">
      <feGaussianBlur
         stdDeviation="0.8"
         id="feGaussianBlur6727" />
    </filter>
  </defs>
  <path
     d="m 24.545736,29.335255 c -0.105827,0 -0.213073,-0.0039 -0.319059,-0.01169 L 4.9264474,27.897356 C 3.6967526,27.806508 2.5870399,27.208603 1.8020482,26.213903 1.0168992,25.219037 0.66560282,23.965623 0.81263151,22.684396 L 2.6379889,6.7884291 C 2.873392,4.7389552 4.3971441,3.0739326 6.3435835,2.7395131 L 21.715395,0.09904579 c 0.240278,-0.041309 0.484802,-0.062209 0.726809,-0.062209 2.274936,0 4.17876,1.78680891 4.428316,4.15654501 l 2.103061,19.9626402 c 0.138694,1.317273 -0.26591,2.638491 -1.110342,3.624964 -0.845376,0.987787 -2.054627,1.554262 -3.317503,1.554262"
     id="path3855"
     style="fill:#e35620;fill-opacity:1" />
  <path
     d="m 9.2889069,19.415291 5.6125641,14.586911 5.612566,-14.586911 -11.2251301,0 z"
     id="path3857"
     style="fill:#c44b1b;fill-opacity:1" />
  <path
     d="m 45.20554,9.4250909 3.79008,34.3745581 c 0.379462,3.442643 -2.452471,6.388214 -5.907299,6.144214 L 8.30596,47.488274 C 5.1418918,47.264967 2.8081613,44.43955 3.1867726,41.28993 L 6.4763833,13.917981 C 6.7711107,11.466076 8.6505641,9.5038721 11.087732,9.1037252 l 27.70267,-4.5470184 c 3.13828,-0.5149266 6.066566,1.707144 6.415138,4.8683841"
     id="path6773"
     style="fill:#000000;fill-opacity:0.25;filter:url(#filter6725)"
     transform="matrix(0.54088831,0,0,0.56608941,0.77988636,0.03683809)" />
  <path
     d="m 25.498625,4.3516651 2.10306,19.9626409 c 0.210558,1.999276 -1.36084,3.709883 -3.277874,3.568183 L 5.0235814,26.456433 C 3.2678856,26.32675 1.9729322,24.685921 2.1830181,22.856814 L 4.0083757,6.960861 C 4.1719156,5.5369447 5.2147972,4.3974161 6.5671467,4.1650354 l 15.3718113,-2.64063 c 1.741386,-0.2990385 3.36625,0.9914048 3.559667,2.8272597"
     id="path3860"
     style="fill:#ef5b22;fill-opacity:1" />
  <path
     d="m 18.29769,23.605392 0.03377,-1.834578 c 0.02605,-0.552057 0.08555,-1.10243 0.178187,-1.646744 l 0.360873,-2.125081 c 0.08137,-0.478673 0.13412,-0.962059 0.157599,-1.447464 l 0.0012,-0.02659 c 0.06176,-1.265017 -0.07398,-2.531717 -0.401721,-3.750618 l -0.07334,-0.272998 m -6.774539,0.05584 c 0,0 1.110282,-0.760088 2.565355,-0.682665 1.015719,0.0542 2.822017,-0.12556 3.984404,0.512672 m -6.253967,-6.6205434 -0.382745,6.4785844 -0.08169,1.67603 c -0.09649,1.985046 0.144413,3.97245 0.711778,5.869302 l 0.26599,0.889686 -0.07043,2.565716 m 5.922299,-10.750639 -0.06625,-1.03477 m -2.14077,-0.655303 0,1.063719 m -2.286283,-1.582656 -0.02542,1.582787 m -1.8051,7.160388 C 11.060978,17.98022 10.565339,16.481925 10.791126,14.919673 l 0.0042,-0.02996 0.782538,-0.286126"
     id="path9858"
     style="fill:none;stroke:#ffffff;stroke-width:1.39999998;stroke-linecap:round;stroke-linejoin:round;stroke-miterlimit:10;stroke-dasharray:none;stroke-opacity:1" />
</svg>
